<svg width="270" height="270" viewBox="0 0 270 270" fill="none" xmlns="http://www.w3.org/2000/svg">
<style>
    #a {
        fill: #0c0c0c;
    }
    #b {
        fill: #0c0c0c;
    }
    @media (prefers-color-scheme: dark) {
        #a {
            fill: #fafafa;
        }
        #b {
            fill: #fafafa;
        }
    }
</style>
<path id="a" fill-rule="evenodd" clip-rule="evenodd" d="M116.956 23.131C105.092 29.5946 91.201 44.7768 86.0241 56.9416L82.5272 65.1657L106.915 53.2064C135.263 39.3021 138.754 38.8791 148.491 48.1367C158.991 58.1271 157.785 60.239 137.237 67.8494C21.654 110.656 -25.6186 212.463 66.9497 219.218C86.1674 220.621 87.9542 221.408 96.5746 232.298C131.073 275.881 178.099 254.48 195.673 187.198C199.157 173.863 203.507 167.479 219.054 152.884C265.744 109.056 267.104 67.5903 222.235 56.0927L213.274 53.7962L217.561 66.518C219.918 73.5178 223.748 81.9653 226.078 85.2954C237.755 102.006 196.787 148.878 150.004 172.335C128.266 183.233 127.03 184.997 132.357 197.51L135.64 205.234L149.347 198.987C165.642 191.559 168.105 192.777 162.265 205.371C156.181 218.495 142.93 231.878 136.02 231.878C116.152 231.878 95.8812 184.955 95.7846 138.729L95.7346 115.579L115.286 104.29C135.223 92.7748 164.858 81.164 167.738 83.7405C168.618 84.5239 171.182 94.0973 173.435 105.014L177.536 124.858L188.856 114.421L200.18 103.98L195.923 86.9783C182.479 33.3031 148.584 5.8965 116.956 23.131ZM56.5025 151.061C36.1381 176.019 39.8483 196.134 64.8229 196.134H76.2135L73.9034 179.007C72.6333 169.585 70.5866 156.518 69.3565 149.965L67.1197 138.05L56.5025 151.061Z"/>
<circle id="b" cx="135" cy="135" r="18" />
</svg>
